HIERARCHY
ROOT Hips
{
	OFFSET 0.0136489431 2.13670418 85.5290222
	CHANNELS 6 Xposition Yposition Zposition Zrotation Yrotation Xrotation 
	JOINT Spine
	{
		OFFSET 2.30099286e-05 2.08003235 8.81424618
		CHANNELS 3 Zrotation Yrotation Xrotation 
		JOINT Spine1
		{
			OFFSET 8.7261958e-07 2.72457055e-06 8.84414387
			CHANNELS 3 Zrotation Yrotation Xrotation 
			JOINT Spine2
			{
				OFFSET -2.55740429e-06 -4.31642138e-06 11.682272
				CHANNELS 3 Zrotation Yrotation Xrotation 
				JOINT Spine3
				{
					OFFSET 6.59586306e-07 3.93247592e-06 11.7466984
					CHANNELS 3 Zrotation Yrotation Xrotation 
					JOINT Neck
					{
						OFFSET 8.48960008e-06 8.42700974e-05 17.6582756
						CHANNELS 3 Zrotation Yrotation Xrotation 
						JOINT Neck1
						{
							OFFSET 3.79443094e-07 -3.26421036e-06 5.10151863
							CHANNELS 3 Zrotation Yrotation Xrotation 
							JOINT Head
							{
								OFFSET -9.47953868e-06 -8.86555881e-06 5.10151625
								CHANNELS 3 Zrotation Yrotation Xrotation 
								JOINT HeadEnd
								{
									OFFSET -4.13024277e-16 -5.50596564e-14 11.6550846
									CHANNELS 3 Zrotation Yrotation Xrotation 
									End Site
									{
										OFFSET 0 0 0
									}
								}
							}
						}
					}
				}
				JOINT RightShoulder
				{
					OFFSET -2.62538743 4.81263169e-06 11.1752224
					CHANNELS 3 Zrotation Yrotation Xrotation 
					JOINT RightArm
					{
						OFFSET -1.50603675e-06 -1.24267818e-05 10.4347115
						CHANNELS 3 Zrotation Yrotation Xrotation 
						JOINT RightForeArm
						{
							OFFSET 0.069977134 0.536955001 25.8717893
							CHANNELS 3 Zrotation Yrotation Xrotation 
							JOINT RightHand
							{
								OFFSET 0.298976964 0.0338061789 24.8929021
								CHANNELS 3 Zrotation Yrotation Xrotation 
								JOINT RightHandThumb1
								{
									OFFSET -2.86730862 -2.94429946 3.95956302
									CHANNELS 3 Zrotation Yrotation Xrotation 
									JOINT RightHandThumb2
									{
										OFFSET 5.44471726e-06 6.88177021e-07 3.35039091
										CHANNELS 3 Zrotation Yrotation Xrotation 
										JOINT RightHandThumb3
										{
											OFFSET -5.18119812e-06 -3.88906735e-06 3.75651813
											CHANNELS 3 Zrotation Yrotation Xrotation 
											JOINT RightHandThumb4
											{
												OFFSET -4.83070982e-07 1.11636681e-06 3.1473465
												CHANNELS 3 Zrotation Yrotation Xrotation 
												End Site
												{
													OFFSET 0 0 0
												}
											}
										}
									}
								}
							}
							JOINT RightHandIndex1
							{
								OFFSET -0.0867566392 -2.34528232 10.030899
								CHANNELS 3 Zrotation Yrotation Xrotation 
								JOINT RightHandIndex2
								{
									OFFSET -3.76662116e-06 -3.41322158e-06 4.06108809
									CHANNELS 3 Zrotation Yrotation Xrotation 
									JOINT RightHandIndex3
									{
										OFFSET 2.12695065e-06 2.91990217e-06 3.2488718
										CHANNELS 3 Zrotation Yrotation Xrotation 
										JOINT RightHandIndex4
										{
											OFFSET 1.19115619e-07 -2.31537559e-06 2.6397078
											CHANNELS 3 Zrotation Yrotation Xrotation 
											End Site
											{
												OFFSET 0 0 0
											}
										}
									}
								}
							}
						}
						JOINT RightHandMiddle1
						{
							OFFSET 0.104109198 -0.00677696662 9.50295544
							CHANNELS 3 Zrotation Yrotation Xrotation 
							JOINT RightHandMiddle2
							{
								OFFSET -4.00518747e-07 -5.93760964e-06 4.56873274
								CHANNELS 3 Zrotation Yrotation Xrotation 
								JOINT RightHandMiddle3
								{
									OFFSET 7.54751455e-06 3.29262286e-06 3.6549809
									CHANNELS 3 Zrotation Yrotation Xrotation 
									JOINT RightHandMiddle4
									{
										OFFSET -2.47242271e-06 -5.72284435e-06 2.74122977
										CHANNELS 3 Zrotation Yrotation Xrotation 
										End Site
										{
											OFFSET 0 0 0
										}
									}
								}
							}
						}
					}
					JOINT RightHandRing1
					{
						OFFSET 0.0867536962 2.26744866 8.92171097
						CHANNELS 3 Zrotation Yrotation Xrotation 
						JOINT RightHandRing2
						{
							OFFSET -8.49416485e-06 -8.33849263e-08 4.06109715
							CHANNELS 3 Zrotation Yrotation Xrotation 
							JOINT RightHandRing3
							{
								OFFSET -2.69741424e-07 -8.05873964e-06 3.65497613
								CHANNELS 3 Zrotation Yrotation Xrotation 
								JOINT RightHandRing4
								{
									OFFSET -1.75682811e-07 6.02012545e-07 2.74124503
									CHANNELS 3 Zrotation Yrotation Xrotation 
									End Site
									{
										OFFSET 0 0 0
									}
								}
							}
						}
					}
				}
				JOINT RightHandPinky1
				{
					OFFSET -0.173490137 4.46720457 7.97699213
					CHANNELS 3 Zrotation Yrotation Xrotation 
					JOINT RightHandPinky2
					{
						OFFSET -5.09637176e-06 1.14142521e-05 3.35040545
						CHANNELS 3 Zrotation Yrotation Xrotation 
						JOINT RightHandPinky3
						{
							OFFSET -2.41064345e-06 -3.31119791e-07 2.84276104
							CHANNELS 3 Zrotation Yrotation Xrotation 
							JOINT RightHandPinky4
							{
								OFFSET -4.84227395e-06 -4.19883692e-06 2.63970661
								CHANNELS 3 Zrotation Yrotation Xrotation 
								End Site
								{
									OFFSET 0 0 0
								}
							}
						}
					}
				}
			}
			JOINT RightForeArmEnd
			{
				OFFSET -2.56183113e-14 6.35784429e-17 -1.74232385e-16
				CHANNELS 3 Zrotation Yrotation Xrotation 
				End Site
				{
					OFFSET 0 0 0
				}
			}
		}
	}
	JOINT RightArmEnd
	{
		OFFSET -6.99860395e-14 1.81852944e-16 1.22731819e-14
		CHANNELS 3 Zrotation Yrotation Xrotation 
		End Site
		{
			OFFSET 0 0 0
		}
	}
}
MOTION
Frames: 18
Frame Time: 0.033333
-214.438093 89.3041062 29.0956078 1.61787185 -25.6687834 1.80159183 -0.679544124 -3.87387819 -1.36378447 -0.73631983 -3.58541005 -1.67721009 -0.758175416 -3.19664871 -2.09583711 0.512143183 -7.42570728 0.953412359 0 0 -0 0 0 -0 0 0 -0 0 0 -0 -1.04687741 4.68900651 -3.37655497 -0.916940383 4.71161638 -3.74966341 -0.778837632 4.73874676 -4.56074283 -0.658213445 4.70463442 -5.32300798 0 0 -0 0 0 -0 0 0 -0 0 0 -0 0 0 -0 0 0 -0 0 0 -0 0 0 -0 0 0 -0 0 0 -0 0 0 -0 0 0 -0 0 0 -0 0 0 -0 0 0 -0 0 0 -0 0 0 -0 0 0 -0 0 0 -0 0 0 -0 0 0 -0 0 0 -0 
-214.750674 89.3952598 29.028487 7.69844495 -44.161092 8.4811141 -0.817152546 -2.14626106 -0.0479096773 -0.840891322 -1.65591603 -1.13581483 -0.75275462 -1.00593438 -2.54877945 1.84316213 -14.35106 2.87299048 0 0 -0 0 0 -0 0 0 -0 0 0 -0 -1.30325973 14.3288792 -6.3042591 -0.469967499 14.1110977 -7.59266855 0.286665537 13.1752397 -10.2601731 0.600153764 11.8875566 -12.5411665 0 0 -0 0 0 -0 0 0 -0 0 0 -0 0 0 -0 0 0 -0 0 0 -0 0 0 -0 0 0 -0 0 0 -0 0 0 -0 0 0 -0 0 0 -0 0 0 -0 0 0 -0 0 0 -0 0 0 -0 0 0 -0 0 0 -0 0 0 -0 0 0 -0 0 0 -0 
-215.018895 89.4077853 28.8529411 14.3177153 -54.7084161 15.2624722 -1.14492603 0.0767074298 1.00567138 -1.08409402 0.709193557 -0.7914307 -0.825412659 1.5202932 -3.12728016 2.70190285 -14.9457993 1.93446547 0 0 -0 0 0 -0 0 0 -0 0 0 -0 -1.97314075 17.8261121 -6.3762029 -0.637468733 17.4060221 -8.42417902 0.414616545 15.4473736 -12.7401412 0.359926545 12.9441296 -16.2060116 0 0 -0 0 0 -0 0 0 -0 0 0 -0 0 0 -0 0 0 -0 0 0 -0 0 0 -0 0 0 -0 0 0 -0 0 0 -0 0 0 -0 0 0 -0 0 0 -0 0 0 -0 0 0 -0 0 0 -0 0 0 -0 0 0 -0 0 0 -0 0 0 -0 0 0 -0 
-215.298518 89.2776255 28.5597213 18.5807426 -57.9779678 19.5348072 -1.34321123 1.01243303 2.00207915 -1.255355 1.77164487 -0.421441505 -0.91396055 2.71489588 -3.5795181 3.45946135 -14.7836778 0.410101484 0 0 -0 0 0 -0 0 0 -0 0 0 -0 -2.91072061 19.1578401 -5.57312896 -1.17591475 18.5863791 -8.2366584 -0.00519855562 15.701547 -13.9756199 -0.672759877 12.1863802 -18.396823 0 0 -0 0 0 -0 0 0 -0 0 0 -0 0 0 -0 0 0 -0 0 0 -0 0 0 -0 0 0 -0 0 0 -0 0 0 -0 0 0 -0 0 0 -0 0 0 -0 0 0 -0 0 0 -0 0 0 -0 0 0 -0 0 0 -0 0 0 -0 0 0 -0 0 0 -0 
-215.533303 89.0094775 28.1063154 22.6381654 -59.7937499 23.5399463 -1.49801671 1.64053175 2.95225517 -1.38379413 2.5213626 -0.0345951291 -0.970317193 3.58221277 -3.93760439 4.26006156 -14.6628752 -1.05104382 0 0 -0 0 0 -0 0 0 -0 0 0 -0 -3.90681643 20.1417835 -4.61845117 -1.76762575 19.4440514 -7.84247271 -0.478517303 15.6888625 -14.9099004 -1.77415327 11.2589198 -20.2155737 0 0 -0 0 0 -0 0 0 -0 0 0 -0 0 0 -0 0 0 -0 0 0 -0 0 0 -0 0 0 -0 0 0 -0 0 0 -0 0 0 -0 0 0 -0 0 0 -0 0 0 -0 0 0 -0 0 0 -0 0 0 -0 0 0 -0 0 0 -0 0 0 -0 0 0 -0 
-215.582367 88.7163845 27.7456424 24.7082127 -60.5729309 25.5417947 -1.54008114 1.85472507 3.36339467 -1.41303261 2.79227701 0.130602824 -0.968450987 3.90559295 -4.09920249 4.6932112 -14.5991671 -1.68063243 0 0 -0 0 0 -0 0 0 -0 0 0 -0 -4.41441888 20.4963225 -4.16416137 -2.09723677 19.7558614 -7.61568779 -0.754652386 15.6336569 -15.2603784 -2.33498022 10.827712 -20.9501047 0 0 -0 0 0 -0 0 0 -0 0 0 -0 0 0 -0 0 0 -0 0 0 -0 0 0 -0 0 0 -0 0 0 -0 0 0 -0 0 0 -0 0 0 -0 0 0 -0 0 0 -0 0 0 -0 0 0 -0 0 0 -0 0 0 -0 0 0 -0 0 0 -0 0 0 -0 
-215.374621 88.468774 27.4950264 26.4397043 -61.2684292 27.2432239 -1.61243708 1.98504867 3.66946735 -1.4754911 2.97103415 0.246270856 -1.00819901 4.13302957 -4.23719643 5.05001962 -14.5506372 -2.16123009 0 0 -0 0 0 -0 0 0 -0 0 0 -0 -4.88033455 20.7508959 -3.80260965 -2.42765458 19.9881538 -7.41118784 -1.03688302 15.5961725 -15.499686 -2.83029679 10.5164381 -21.487096 0 0 -0 0 0 -0 0 0 -0 0 0 -0 0 0 -0 0 0 -0 0 0 -0 0 0 -0 0 0 -0 0 0 -0 0 0 -0 0 0 -0 0 0 -0 0 0 -0 0 0 -0 0 0 -0 0 0 -0 0 0 -0 0 0 -0 0 0 -0 0 0 -0 0 0 -0 
-214.848203 88.329008 27.4032371 27.6010237 -61.9363285 28.3708695 -1.69932662 2.0518185 3.81418213 -1.55761948 3.0749836 0.25564411 -1.07880167 4.27841251 -4.40823635 5.24413384 -14.5285177 -2.55441959 0 0 -0 0 0 -0 0 0 -0 0 0 -0 -5.20438087 20.9300103 -3.58608279 -2.6705734 20.14844 -7.30698944 -1.26319071 15.5615607 -15.7138626 -3.22742909 10.2915781 -21.9111694 0 0 -0 0 0 -0 0 0 -0 0 0 -0 0 0 -0 0 0 -0 0 0 -0 0 0 -0 0 0 -0 0 0 -0 0 0 -0 0 0 -0 0 0 -0 0 0 -0 0 0 -0 0 0 -0 0 0 -0 0 0 -0 0 0 -0 0 0 -0 0 0 -0 0 0 -0 
-214.493363 88.2582584 27.1363531 28.7862332 -62.5490571 29.5040959 -1.77815015 2.13365025 3.99101675 -1.63042132 3.19609214 0.301214285 -1.13622538 4.44224582 -4.53808918 5.37972373 -14.5266897 -2.917229 0 0 -0 0 0 -0 0 0 -0 0 0 -0 -5.44885221 21.144894 -3.3950813 -2.83396414 20.3339239 -7.25286077 -1.420093 15.5347922 -15.9836299 -3.57150967 10.0572072 -22.3878325 0 0 -0 0 0 -0 0 0 -0 0 0 -0 0 0 -0 0 0 -0 0 0 -0 0 0 -0 0 0 -0 0 0 -0 0 0 -0 0 0 -0 0 0 -0 0 0 -0 0 0 -0 0 0 -0 0 0 -0 0 0 -0 0 0 -0 0 0 -0 0 0 -0 0 0 -0 
-214.269812 88.2529122 26.9368654 29.6336852 -63.001941 30.2410827 -1.77850694 2.19130766 4.08380181 -1.62752336 3.27932114 0.305825183 -1.12412809 4.54908251 -4.65140133 5.44837446 -14.53733 -3.16457918 0 0 -0 0 0 -0 0 0 -0 0 0 -0 -5.53779012 21.2929072 -3.31766749 -2.88322792 20.4510589 -7.28219257 -1.49047072 15.4984809 -16.2279545 -3.79350229 9.87828652 -22.7632731 0 0 -0 0 0 -0 0 0 -0 0 0 -0 0 0 -0 0 0 -0 0 0 -0 0 0 -0 0 0 -0 0 0 -0 0 0 -0 0 0 -0 0 0 -0 0 0 -0 0 0 -0 0 0 -0 0 0 -0 0 0 -0 0 0 -0 0 0 -0 0 0 -0 0 0 -0 
-214.079677 88.3013918 26.9804292 30.7304596 -63.4807194 31.3273059 -1.89271345 2.27294194 4.31380481 -1.7335176 3.40130926 0.413115524 -1.21038249 4.717206 -4.70875731 5.54066031 -14.5555434 -3.48382934 0 0 -0 0 0 -0 0 0 -0 0 0 -0 -5.76240403 21.5304225 -3.10637617 -3.01346377 20.6584749 -7.21772238 -1.60322397 15.4874766 -16.4870829 -4.08852792 9.64949604 -23.2263975 0 0 -0 0 0 -0 0 0 -0 0 0 -0 0 0 -0 0 0 -0 0 0 -0 0 0 -0 0 0 -0 0 0 -0 0 0 -0 0 0 -0 0 0 -0 0 0 -0 0 0 -0 0 0 -0 0 0 -0 0 0 -0 0 0 -0 0 0 -0 0 0 -0 0 0 -0 
-213.974613 88.3116299 26.9978749 31.4241524 -63.8480695 31.9331138 -1.91361175 2.33222881 4.40850005 -1.75107448 3.4857149 0.424199569 -1.21801009 4.82604358 -4.80968913 5.61342182 -14.5678681 -3.72364653 0 0 -0 0 0 -0 0 0 -0 0 0 -0 -5.87667261 21.6804337 -3.00895326 -3.08093171 20.7820616 -7.22040202 -1.68014755 15.4631297 -16.6992913 -4.30485942 9.48661452 -23.5676955 0 0 -0 0 0 -0 0 0 -0 0 0 -0 0 0 -0 0 0 -0 0 0 -0 0 0 -0 0 0 -0 0 0 -0 0 0 -0 0 0 -0 0 0 -0 0 0 -0 0 0 -0 0 0 -0 0 0 -0 0 0 -0 0 0 -0 0 0 -0 0 0 -0 0 0 -0 
-213.934693 88.2986071 27.026513 32.0730524 -64.1608146 32.5200343 -1.95408476 2.39778946 4.51779685 -1.78760739 3.57653918 0.451075329 -1.24290471 4.94285589 -4.89329586 5.69389979 -14.577723 -3.95459113 0 0 -0 0 0 -0 0 0 -0 0 0 -0 -6.01620025 21.8358792 -2.89135076 -3.16614977 20.9149767 -7.19905937 -1.7633899 15.4509945 -16.8882009 -4.51723193 9.33590185 -23.88785 0 0 -0 0 0 -0 0 0 -0 0 0 -0 0 0 -0 0 0 -0 0 0 -0 0 0 -0 0 0 -0 0 0 -0 0 0 -0 0 0 -0 0 0 -0 0 0 -0 0 0 -0 0 0 -0 0 0 -0 0 0 -0 0 0 -0 0 0 -0 0 0 -0 0 0 -0 
-213.965161 88.2758057 27.1187617 32.6962991 -64.4354736 33.1113384 -2.01363549 2.45089507 4.64127123 -1.84255076 3.65501283 0.493846898 -1.2861361 5.04889117 -4.95889567 5.79598042 -14.5829671 -4.17066646 0 0 -0 0 0 -0 0 0 -0 0 0 -0 -6.197583 21.9752831 -2.74895906 -3.28775505 21.0386459 -7.14066372 -1.871807 15.4389596 -17.0360428 -4.74288379 9.19334652 -24.1671963 0 0 -0 0 0 -0 0 0 -0 0 0 -0 0 0 -0 0 0 -0 0 0 -0 0 0 -0 0 0 -0 0 0 -0 0 0 -0 0 0 -0 0 0 -0 0 0 -0 0 0 -0 0 0 -0 0 0 -0 0 0 -0 0 0 -0 0 0 -0 0 0 -0 0 0 -0 
-214.026034 88.264009 27.2567099 33.2868688 -64.6723698 33.6735647 -2.07035054 2.50950884 4.77453768 -1.89422221 3.73913447 0.547400551 -1.32475079 5.16017299 -5.01254282 5.90431152 -14.5813971 -4.38060835 0 0 -0 0 0 -0 0 0 -0 0 0 -0 -6.37931575 22.111354 -2.59718692 -3.4061628 21.1599362 -7.07364617 -1.9741413 15.4246545 -17.1752155 -4.96160119 9.04794603 -24.4377137 0 0 -0 0 0 -0 0 0 -0 0 0 -0 0 0 -0 0 0 -0 0 0 -0 0 0 -0 0 0 -0 0 0 -0 0 0 -0 0 0 -0 0 0 -0 0 0 -0 0 0 -0 0 0 -0 0 0 -0 0 0 -0 0 0 -0 0 0 -0 0 0 -0 0 0 -0 
-214.096466 88.2640908 27.418121 33.8241196 -64.8878812 34.1873465 -2.12764188 2.5720693 4.91104352 -1.94630907 3.8273145 0.606177704 -1.36290317 5.27560112 -5.05846336 6.00469701 -14.5754422 -4.59128802 0 0 -0 0 0 -0 0 0 -0 0 0 -0 -6.55131276 22.2462411 -2.43985971 -3.51185396 21.2798216 -7.00456604 -2.06285144 15.4073286 -17.3123617 -5.16808555 8.89724803 -24.7052521 0 0 -0 0 0 -0 0 0 -0 0 0 -0 0 0 -0 0 0 -0 0 0 -0 0 0 -0 0 0 -0 0 0 -0 0 0 -0 0 0 -0 0 0 -0 0 0 -0 0 0 -0 0 0 -0 0 0 -0 0 0 -0 0 0 -0 0 0 -0 0 0 -0 0 0 -0 
-214.155772 88.2751654 27.5784981 34.2841019 -65.1028732 34.6377865 -2.19714963 2.62949999 5.04324559 -2.01074911 3.91035067 0.66413963 -1.41375724 5.38722211 -5.10068887 6.08989933 -14.5693451 -4.80669679 0 0 -0 0 0 -0 0 0 -0 0 0 -0 -6.72100343 22.3773916 -2.27540369 -3.61237944 21.396916 -6.92867893 -2.14401641 15.387761 -17.4405416 -5.36575111 8.74401979 -24.9617897 0 0 -0 0 0 -0 0 0 -0 0 0 -0 0 0 -0 0 0 -0 0 0 -0 0 0 -0 0 0 -0 0 0 -0 0 0 -0 0 0 -0 0 0 -0 0 0 -0 0 0 -0 0 0 -0 0 0 -0 0 0 -0 0 0 -0 0 0 -0 0 0 -0 0 0 -0 
-214.195222 88.2755855 27.7330281 34.675298 -65.3151765 35.0310655 -2.27822329 2.67812489 5.16918357 -2.0869563 3.98454253 0.718887407 -1.47725359 5.4913036 -5.14220234 6.16738208 -14.5655294 -5.02552917 0 0 -0 0 0 -0 0 0 -0 0 0 -0 -6.89684528 22.5032106 -2.1036796 -3.71687998 21.510734 -6.84296566 -2.22568196 15.3679643 -17.5562975 -5.56029743 8.59288941 -25.2045621 0 0 -0 0 0 -0 0 0 -0 0 0 -0 0 0 -0 0 0 -0 0 0 -0 0 0 -0 0 0 -0 0 0 -0 0 0 -0 0 0 -0 0 0 -0 0 0 -0 0 0 -0 0 0 -0 0 0 -0 0 0 -0 0 0 -0 0 0 -0 0 0 -0 0 0 -0 
